<svg version="1.0" width="58.000000pt" height="35.000000pt" viewBox="0 0 58.000000 35.000000"
    preserveAspectRatio="xMidYMid meet">
    <g transform="translate(0.000000,35.000000) scale(0.100000,-0.100000)" fill="#000000" stroke="none">
        <path d="M194 246 c-38 -36 -53 -55 -42 -56 13 0 18 -11 20 -52 3 -52 4 -53
36 -56 31 -3 32 -2 32 32 0 29 4 36 20 36 16 0 20 -7 20 -36 0 -34 1 -35 33
-32 31 3 32 4 35 56 2 37 7 52 18 52 7 0 14 3 14 8 -1 7 -104 95 -119 100 -4
1 -34 -22 -67 -52z m121 -1 c28 -24 44 -44 38 -45 -9 0 -13 -18 -13 -55 0 -52
-1 -55 -25 -55 -22 0 -25 4 -25 35 0 32 -2 35 -30 35 -28 0 -30 -3 -30 -35 0
-31 -3 -35 -25 -35 -24 0 -25 3 -25 55 0 37 -4 55 -12 55 -12 1 80 89 92 90 3
0 28 -20 55 -45z" />
    </g>
</svg>